<svg width="340" height="380" viewBox="0 0 340 380" xmlns="http://www.w3.org/2000/svg">
  <g transform="translate(95,0)">
    <path d="M0,150 L-70,330 L70,330 Z" fill="#bc1e63"/>
    <path d="M0,170 L-44,330 L44,330 Z" fill="#f4a300"/>
    <rect x="-14" y="92" width="28" height="70" rx="12" fill="#0e7c7b"/>
    <circle cx="0" cy="80" r="24" fill="#1c1510"/>
    <path d="M-12,150 q-46,-26 -58,-66" stroke="#0e7c7b" stroke-width="14" fill="none" stroke-linecap="round"/>
    <path d="M12,150 q46,-26 58,-66" stroke="#0e7c7b" stroke-width="14" fill="none" stroke-linecap="round"/>
    <circle cx="0" cy="64" r="6" fill="#c9a24b"/>
  </g>
  <g transform="translate(230,18)">
    <path d="M0,150 L-66,320 L66,320 Z" fill="#26235c"/>
    <path d="M0,170 L-40,320 L40,320 Z" fill="#bc1e63"/>
    <rect x="-14" y="92" width="28" height="70" rx="12" fill="#f4a300"/>
    <circle cx="0" cy="80" r="24" fill="#1c1510"/>
    <path d="M-12,150 q-48,-20 -52,-64" stroke="#f4a300" stroke-width="14" fill="none" stroke-linecap="round"/>
    <path d="M12,150 q48,-20 52,-64" stroke="#f4a300" stroke-width="14" fill="none" stroke-linecap="round"/>
    <circle cx="0" cy="64" r="6" fill="#c9a24b"/>
  </g>
</svg>
