<svg width="420" height="380" viewBox="0 0 420 380" xmlns="http://www.w3.org/2000/svg">
  <g fill="#26235c">
    <rect x="120" y="250" width="34" height="90" rx="10"/>
    <rect x="180" y="250" width="34" height="90" rx="10"/>
    <rect x="250" y="250" width="34" height="90" rx="10"/>
    <ellipse cx="205" cy="200" rx="135" ry="92"/>
    <circle cx="320" cy="180" r="64"/>
  </g>
  <path d="M362,205 q44,26 34,92 q-3,30 -24,28 q-17,-2 -13,-28 q6,-42 -12,-74 z" fill="#26235c"/>
  <ellipse cx="300" cy="150" rx="34" ry="44" fill="#1c1a4a"/>
  <path d="M340,228 q26,16 40,8" stroke="#f4ecda" stroke-width="9" fill="none" stroke-linecap="round"/>
  <path d="M95,150 q120,-46 230,2 q-10,40 -60,40 l-120,0 q-44,0 -50,-42 z" fill="#bc1e63"/>
  <rect x="150" y="92" width="120" height="46" rx="8" fill="#c9a24b"/>
  <path d="M150,92 q60,-34 120,0" fill="#f4a300"/>
  <circle cx="305" cy="172" r="7" fill="#f4ecda"/>
  <g fill="#f4a300"><circle cx="150" cy="312" r="6"/><circle cx="210" cy="318" r="6"/><circle cx="270" cy="312" r="6"/></g>
</svg>
