<svg width="440" height="380" viewBox="0 0 440 380" xmlns="http://www.w3.org/2000/svg">
  <rect x="40" y="150" width="360" height="14" rx="7" fill="#c9a24b"/>
  <rect x="110" y="170" width="220" height="120" rx="10" fill="#bc1e63"/>
  <path d="M100,170 q120,-70 240,0 z" fill="#26235c"/>
  <path d="M218,80 l4,24 l-4,0 z" fill="#c9a24b"/>
  <circle cx="220" cy="76" r="8" fill="#f4a300"/>
  <rect x="150" y="200" width="140" height="74" rx="8" fill="#f4a300" opacity="0.4"/>
  <g fill="#26235c">
    <rect x="74" y="190" width="26" height="110" rx="10"/>
    <circle cx="87" cy="172" r="20" fill="#1c1510"/>
    <rect x="120" y="200" width="26" height="100" rx="10"/>
    <circle cx="133" cy="182" r="20" fill="#1c1510"/>
    <rect x="296" y="200" width="26" height="100" rx="10"/>
    <circle cx="309" cy="182" r="20" fill="#1c1510"/>
    <rect x="342" y="190" width="26" height="110" rx="10"/>
    <circle cx="355" cy="172" r="20" fill="#1c1510"/>
  </g>
  <g fill="#f4a300"><circle cx="130" cy="292" r="6"/><circle cx="220" cy="296" r="6"/><circle cx="310" cy="292" r="6"/></g>
</svg>
