<svg width="1600" height="420" viewBox="0 0 1600 420" xmlns="http://www.w3.org/2000/svg" preserveAspectRatio="xMidYMax meet">
  <g fill="#26235c" opacity="0.92">
    <rect x="40" y="220" width="120" height="200"/>
    <path d="M100,220 q-30,-60 0,-90 q30,30 0,90"/>
    <rect x="200" y="170" width="90" height="250"/>
    <path d="M245,170 l-30,-50 l60,0 z"/>
    <rect x="330" y="250" width="150" height="170"/>
    <path d="M405,250 q-40,-70 0,-110 q40,40 0,110"/>
    <rect x="520" y="200" width="80" height="220"/>
    <rect x="640" y="160" width="110" height="260"/>
    <path d="M695,160 l-26,-46 l52,0 z"/>
    <rect x="790" y="240" width="140" height="180"/>
    <path d="M860,240 q-44,-66 0,-104 q44,38 0,104"/>
    <rect x="970" y="190" width="90" height="230"/>
    <rect x="1100" y="250" width="150" height="170"/>
    <path d="M1175,250 q-40,-70 0,-110 q40,40 0,110"/>
    <rect x="1290" y="180" width="100" height="240"/>
    <path d="M1340,180 l-28,-48 l56,0 z"/>
    <rect x="1430" y="240" width="130" height="180"/>
  </g>
  <g stroke="#c9a24b" stroke-width="2" opacity="0.7">
    <path d="M0,120 Q200,150 400,120 T800,120 T1200,120 T1600,120" fill="none"/>
  </g>
  <g fill="#f4a300">
    <path d="M120,128 l16,0 l-8,16 z"/><path d="M320,124 l16,0 l-8,16 z"/><path d="M520,128 l16,0 l-8,16 z"/>
    <path d="M720,124 l16,0 l-8,16 z"/><path d="M920,128 l16,0 l-8,16 z"/><path d="M1120,124 l16,0 l-8,16 z"/>
    <path d="M1320,128 l16,0 l-8,16 z"/>
  </g>
</svg>
