<svg xmlns="http://www.w3.org/2000/svg" width="600" height="760" viewBox="0 0 600 760">
  <rect width="600" height="760" fill="#26235c"/>
  <rect x="18" y="18" width="564" height="724" fill="none" stroke="#c9a24b" stroke-width="3"/>
  <rect x="28" y="28" width="544" height="704" fill="none" stroke="#c9a24b" stroke-width="1"/>
  <g transform="translate(300,300)">
    <g transform="rotate(-72)"><ellipse cx="0" cy="-205" rx="26" ry="58" fill="#0e7c7b"/><circle cx="0" cy="-205" r="20" fill="#bc1e63"/><circle cx="0" cy="-205" r="11" fill="#c9a24b"/><circle cx="0" cy="-205" r="4" fill="#26235c"/></g>
    <g transform="rotate(-54)"><ellipse cx="0" cy="-205" rx="26" ry="58" fill="#1d9e8f"/><circle cx="0" cy="-205" r="20" fill="#bc1e63"/><circle cx="0" cy="-205" r="11" fill="#c9a24b"/><circle cx="0" cy="-205" r="4" fill="#26235c"/></g>
    <g transform="rotate(-36)"><ellipse cx="0" cy="-205" rx="26" ry="58" fill="#0e7c7b"/><circle cx="0" cy="-205" r="20" fill="#bc1e63"/><circle cx="0" cy="-205" r="11" fill="#c9a24b"/><circle cx="0" cy="-205" r="4" fill="#26235c"/></g>
    <g transform="rotate(-18)"><ellipse cx="0" cy="-205" rx="26" ry="58" fill="#1d9e8f"/><circle cx="0" cy="-205" r="20" fill="#bc1e63"/><circle cx="0" cy="-205" r="11" fill="#c9a24b"/><circle cx="0" cy="-205" r="4" fill="#26235c"/></g>
    <g transform="rotate(0)"><ellipse cx="0" cy="-205" rx="26" ry="58" fill="#0e7c7b"/><circle cx="0" cy="-205" r="20" fill="#bc1e63"/><circle cx="0" cy="-205" r="11" fill="#c9a24b"/><circle cx="0" cy="-205" r="4" fill="#26235c"/></g>
    <g transform="rotate(18)"><ellipse cx="0" cy="-205" rx="26" ry="58" fill="#1d9e8f"/><circle cx="0" cy="-205" r="20" fill="#bc1e63"/><circle cx="0" cy="-205" r="11" fill="#c9a24b"/><circle cx="0" cy="-205" r="4" fill="#26235c"/></g>
    <g transform="rotate(36)"><ellipse cx="0" cy="-205" rx="26" ry="58" fill="#0e7c7b"/><circle cx="0" cy="-205" r="20" fill="#bc1e63"/><circle cx="0" cy="-205" r="11" fill="#c9a24b"/><circle cx="0" cy="-205" r="4" fill="#26235c"/></g>
    <g transform="rotate(54)"><ellipse cx="0" cy="-205" rx="26" ry="58" fill="#1d9e8f"/><circle cx="0" cy="-205" r="20" fill="#bc1e63"/><circle cx="0" cy="-205" r="11" fill="#c9a24b"/><circle cx="0" cy="-205" r="4" fill="#26235c"/></g>
    <g transform="rotate(72)"><ellipse cx="0" cy="-205" rx="26" ry="58" fill="#0e7c7b"/><circle cx="0" cy="-205" r="20" fill="#bc1e63"/><circle cx="0" cy="-205" r="11" fill="#c9a24b"/><circle cx="0" cy="-205" r="4" fill="#26235c"/></g>
  </g>
  <g transform="translate(300,360)">
    <path d="M0,0 C-30,40 -30,120 -10,180 L10,180 C30,120 30,40 0,0 Z" fill="#117a74"/>
    <path d="M0,-10 C-22,-30 -22,-70 0,-92 C22,-70 22,-30 0,-10 Z" fill="#0e7c7b"/>
    <circle cx="0" cy="-96" r="16" fill="#1d9e8f"/>
    <path d="M0,-112 L0,-128" stroke="#c9a24b" stroke-width="3" fill="none"/>
    <circle cx="0" cy="-130" r="4" fill="#f4a300"/>
    <path d="M14,-96 L34,-90" stroke="#f4a300" stroke-width="4" stroke-linecap="round" fill="none"/>
  </g>
  <text x="300" y="700" text-anchor="middle" font-family="Georgia, serif" font-size="40" fill="#c9a24b">Peacock</text>
  <text x="300" y="724" text-anchor="middle" font-family="sans-serif" font-size="13" fill="#9aa0a6">PICHWAI</text>
</svg>
