<svg width="600" height="760" viewBox="0 0 600 760" xmlns="http://www.w3.org/2000/svg">
  <rect width="600" height="760" fill="#f4a300"/>
  <rect x="18" y="18" width="564" height="724" fill="none" stroke="#1c1510" stroke-width="3"/>
  <rect x="28" y="28" width="544" height="704" fill="none" stroke="#1c1510" stroke-width="1"/>
  <g transform="translate(300,330)">
    <g fill="#e2402b">
      <rect x="-4" y="-220" width="8" height="60" rx="4"/>
      <rect x="-4" y="-220" width="8" height="60" rx="4" transform="rotate(30)"/>
      <rect x="-4" y="-220" width="8" height="60" rx="4" transform="rotate(60)"/>
      <rect x="-4" y="-220" width="8" height="60" rx="4" transform="rotate(90)"/>
      <rect x="-4" y="-220" width="8" height="60" rx="4" transform="rotate(120)"/>
      <rect x="-4" y="-220" width="8" height="60" rx="4" transform="rotate(150)"/>
      <rect x="-4" y="-220" width="8" height="60" rx="4" transform="rotate(180)"/>
      <rect x="-4" y="-220" width="8" height="60" rx="4" transform="rotate(210)"/>
      <rect x="-4" y="-220" width="8" height="60" rx="4" transform="rotate(240)"/>
      <rect x="-4" y="-220" width="8" height="60" rx="4" transform="rotate(270)"/>
      <rect x="-4" y="-220" width="8" height="60" rx="4" transform="rotate(300)"/>
      <rect x="-4" y="-220" width="8" height="60" rx="4" transform="rotate(330)"/>
    </g>
    <circle r="150" fill="#1c1510"/>
    <circle r="150" fill="none" stroke="#e2402b" stroke-width="6"/>
    <circle r="120" fill="none" stroke="#c9a24b" stroke-width="2"/>
    <circle cx="-50" cy="-30" r="14" fill="#f4a300"/>
    <circle cx="50" cy="-30" r="14" fill="#f4a300"/>
    <circle cx="-50" cy="-30" r="6" fill="#1c1510"/>
    <circle cx="50" cy="-30" r="6" fill="#1c1510"/>
    <path d="M-40,30 Q0,70 40,30" fill="none" stroke="#f4a300" stroke-width="8" stroke-linecap="round"/>
    <path d="M0,-6 L-8,18 L8,18 Z" fill="#f4a300"/>
  </g>
  <text x="300" y="700" text-anchor="middle" font-family="Georgia, serif" font-size="40" fill="#1c1510">सूर्य</text>
  <text x="300" y="724" text-anchor="middle" font-family="sans-serif" font-size="13" letter-spacing="4" fill="#1c1510" opacity="0.65">SURYA · KONARK</text>
</svg>
